<?xml version="1.0" encoding="UTF-8"?><svg xmlns="http://www.w3.org/2000/svg" viewBox="0 0 1024 512"><defs><style>.cls-1,.cls-2,.cls-3,.cls-4,.cls-5{stroke-miterlimit:10;}.cls-1,.cls-2,.cls-4{fill:none;}.cls-1,.cls-3,.cls-4{stroke:#231f20;}.cls-6,.cls-3{fill:#fff;}.cls-2,.cls-5{stroke:#fff;}.cls-4{stroke-width:2px;}.cls-5,.cls-7{fill:#231f20;}</style></defs><g id="Front"><path class="cls-3" d="M420.23,420.06c14.81-4.6,57.19-26.55,66.38-29.11s16.85,28.09,17.87,35.74-40.85,26.55-62.81,34.72-72,12.26-77.11,8.68-18.38-34.21-18.38-34.21c5.62,3.06,59.23-11.23,74.04-15.83Zm57.45-25.58c-8.08-49.75,16.25-66.34,17.95-78.6,11.18-158.58-61.33-74.45-64.34,0l3.06-34.04c-2.04-10.21-16.68-32-15.32-37.79s21.79,21.11,18.72,13.75c-3.06-7.36-24.85-36.22-19.06-34.18s20.09,16.68,20.09,16.68c-21.45-40.4-41.11-53.26,9.19-18.72-4.43-13.96-31.32-40.17-31.32-40.17-5.11-10.21,29.62,12.26,29.62,12.26-7.49-22.81-41.19-33.7-41.19-33.7l.68-4.77c8.85-18.72,1.7-39.49,1.7-39.49-19.06,6.47-23.49,35.74-23.49,35.74-25-5.65-80.86-.22-99.74,24.17-17.02-18.72-52.77-22.13-52.77-22.13,.68,21.45,18.72,39.15,18.72,39.15-11.57,6.81-18.72,52.43-18.72,52.43,0,0,23.83-34.38,17.7-17.02s0,51.74,0,51.74c0,0,10.55-36.09,9.87-19.4s11.23,52.09,9.87,46.81,4-39.06,5.45-27.83c1.45,11.23,13.11,44.17,13.11,44.17,0,0,1.79-35.74,2.55-14.81s55.15,137.36,59.48,127.57"/></g><g id="Back"><path class="cls-5" d="M483.18,370.02s71.01-33.36,69.99-27.23,3.06,44.94,3.06,44.94l-51.73,18.04s2.02,1.02-5.18-11.28-19.01-6.77-19.01-6.77c-1.02-33.7,19.06-67.06,19.06-67.06,0,0,9.96-100.26-20.94-98.98s-42.13,58.44-42.13,58.44c0,0-16.02-36.84-14.81-33.5s17.11,15.41,17.11,15.41c0,0,1.79-3.32,1.28-6.02s-19.66-29.72-19.66-29.72l18.38,16.51,2.81,1s-.51-4.49-1.02-8.04-19.91-29.98-19.91-29.98c0,0,30.38,20.5,31.15,18.61s-3.57-8.06-5.11-12.49-26.81-29.79-26.81-29.79l30.39,16.14s-.26-3.37,0-5.41-8.68-15.32-16.34-21.96-25.48-9.72-23.49-13.79,2.55-24.51,2.55-24.51c0,0,50.81-26.04,73.79-16.85,0,0,19.91-31.66,31.91-30.64s-3.06,33.96-3.06,33.96c0,0,40.6,2.81,34.47,107.23l-3.57,44.68s30.13-32.34,41.62-28.17c11.49,4.17,11.74,36.08,3.32,49.62s-36,42.64-36,42.64l-1.79,5.62"/><path class="cls-7" d="M257.34,191.3c-4.94-7.57-9.68-15.3-13.72-23.4-1.07-2.59-4.89-7.98,.87-7.03,5.93,1.44,11.29,4.46,16.66,7.24,5.31,2.87,10.51,5.91,15.6,9.15-5.29-2.88-10.58-5.75-15.95-8.46-5.35-2.57-10.67-5.6-16.48-6.93-.67-.12-1.49-.18-1.84,.05-.31,.11-.17,.83,.14,1.5,.55,1.38,1.16,2.75,1.81,4.1,3.8,7.82,8.63,16.17,12.91,23.79h0Z"/><path class="cls-1" d="M388.57,152.49s8.64-19.51,14.08-27.06c5.44-7.56-2.85,31.66-2.85,31.66"/><g><path class="cls-3" d="M629.13,222.5v42h-12.72v-42h12.72Zm27.36,42h-15.18l-9.18-14.82v-12.9l9.18-14.28h15.12v.06l-13.92,20.64,13.98,21.24v.06Z"/><path class="cls-3" d="M659.97,229.34v-6.84h12.24v6.84h-12.24Zm.12,35.16v-32.04h12v32.04h-12Z"/><path class="cls-3" d="M703.71,232.46v8.88h-27.84v-8.88h6.24v-7.26h11.88v7.26h9.72Zm0,22.92v8.88c-2.58,.36-5.64,.48-8.58,.48-5.04,0-9.3-.42-13.02-1.26v-19.14h11.88v11.04h9.72Z"/><path class="cls-3" d="M734.25,232.46v8.88h-27.84v-8.88h6.24v-7.26h11.88v7.26h9.72Zm0,22.92v8.88c-2.58,.36-5.64,.48-8.58,.48-5.04,0-9.3-.42-13.02-1.26v-19.14h11.88v11.04h9.72Z"/><path class="cls-3" d="M756.45,256.46v8.88h-1.26c-6,0-11.46-1.02-16.26-2.88v-27.96c3.6-1.38,7.56-2.28,11.88-2.7v24.66h5.64Zm-1.38-24.84c6,0,11.46,1.02,16.26,2.88v16.26h-17.52v-6.12h5.64v-5.04h-5.64v-7.98h1.26Zm16.26,30.84c-3.6,1.38-7.56,2.28-11.88,2.7v-11.58h11.88v8.88Z"/><path class="cls-3" d="M777.09,264.5v-32.04h11.88v32.04h-11.88Zm32.4-31.8v31.8h-11.88v-22.68c-1.8,0-3.9,.36-5.64,.9v-8.76c3.36-1.14,7.62-1.86,11.4-1.86,2.16,0,4.74,.24,6.12,.6Z"/><path class="cls-3" d="M642.21,318.2l-4.62,6.72h-4.62l-20.82-30.36v-.06h13.86l16.2,23.7Zm-17.34,.18v18.12h-12.72v-36.66h.06l12.66,18.54Zm33.66,18.12h-12.72v-18.3l-8.34-12.18,7.92-11.52h13.14v42Z"/><path class="cls-3" d="M664.23,301.34v-6.84h12.24v6.84h-12.24Zm.12,35.16v-32.04h12v32.04h-12Z"/><path class="cls-3" d="M707.97,304.46v8.88h-27.84v-8.88h6.24v-7.26h11.88v7.26h9.72Zm0,22.92v8.88c-2.58,.36-5.64,.48-8.58,.48-5.04,0-9.3-.42-13.02-1.26v-19.14h11.88v11.04h9.72Z"/><path class="cls-3" d="M738.51,304.46v8.88h-27.84v-8.88h6.24v-7.26h11.88v7.26h9.72Zm0,22.92v8.88c-2.58,.36-5.64,.48-8.58,.48-5.04,0-9.3-.42-13.02-1.26v-19.14h11.88v11.04h9.72Z"/><path class="cls-3" d="M760.71,328.46v8.88h-1.26c-6,0-11.46-1.02-16.26-2.88v-27.96c3.6-1.38,7.56-2.28,11.88-2.7v24.66h5.64Zm-1.38-24.84c6,0,11.46,1.02,16.26,2.88v16.26h-17.52v-6.12h5.64v-5.04h-5.64v-7.98h1.26Zm16.26,30.84c-3.6,1.38-7.56,2.28-11.88,2.7v-11.58h11.88v8.88Z"/><path class="cls-3" d="M781.35,336.5v-32.04h11.88v32.04h-11.88Zm32.4-31.8v31.8h-11.88v-22.68c-1.8,0-3.9,.36-5.64,.9v-8.76c3.36-1.14,7.62-1.86,11.4-1.86,2.16,0,4.74,.24,6.12,.6Z"/></g><path class="cls-7" d="M276.74,198.7c11.28-5.31,25.69-5.11,36.26,1.79-11.67-4.22-24.2-4.34-36.26-1.79h0Z"/><path class="cls-7" d="M351.81,191.3c6.07-10.71,17.19-21.03,29.96-21.96-12.17,3.83-21.45,12.83-29.96,21.96h0Z"/><path class="cls-4" d="M283.38,223.47c-.79-6.02,12.54-12.45,15.32-13.79,5.61-2.7,10.97-5.29,15.32-3.06,6.86,3.51,8.68,17.72,3.06,24-8.36,9.35-32.69,.54-33.7-7.15Z"/><path class="cls-4" d="M357.43,193.17s26.04-18.04,37.45-1.53c0,0-9.7,25.87-24.17,25.87s-18.59-21.21-13.28-24.34Z"/><path class="cls-7" d="M300.91,211.89c4.2,5.66,6.67,12.53,6.98,19.57-4.22-5.65-6.65-12.53-6.98-19.57h0Z"/><path class="cls-7" d="M369.32,191.31c4.2,5.66,6.67,12.53,6.98,19.57-4.22-5.65-6.65-12.53-6.98-19.57h0Z"/><path class="cls-7" d="M334.28,267.21c8.14-7.11,10.54-17.67,8.74-28.01,0,0,2.91-.68,2.91-.68,3.17,9.3,9.46,21.21,20.87,20.51-8.79,2.71-16.51-4.72-20.35-11.9-1.35-2.49-2.49-5-3.38-7.76l2.91-.68c.57,4.05,.75,8.32-.17,12.33-1.35,6.62-5.48,13-11.51,16.17h0Z"/><path class="cls-7" d="M291.38,263.81c5.2-14.08,26.62-23.76,40.51-26.55-6.43,3.33-15.55,7.91-21.69,11.49-6.97,4.13-13.9,8.43-18.82,15.06h0Z"/><path class="cls-7" d="M300.91,280.12c-.41-15,15.88-31.95,27.74-39.71-4.73,5.48-11.5,13.12-15.87,18.73-4.94,6.42-9.77,12.99-11.87,20.98h0Z"/><path class="cls-7" d="M313.19,287.59c-3.66-14.6,8.51-34.61,18.41-44.8-3.42,6.38-8.36,15.31-11.4,21.74-3.42,7.35-6.7,14.81-7.01,23.06h0Z"/><path class="cls-7" d="M403.51,225.22c-8.07-1.78-16.11-.48-24.08,.98-6.95,1.32-16.93,3.87-23.91,5.56,12.31-7,34.83-13.76,47.99-6.54h0Z"/><path class="cls-7" d="M407.02,243.79c-6.83-4.65-14.78-6.43-22.72-8.04-6.94-1.36-17.15-2.7-24.26-3.73,14.03-1.92,37.44,.17,46.99,11.77h0Z"/><path class="cls-7" d="M402.66,257.48c-5.65-6.03-13.02-9.5-20.42-12.8-6.48-2.84-16.15-6.38-22.87-8.93,14.11,1.18,36.51,8.33,43.29,21.73h0Z"/><path class="cls-2" d="M463.1,192.93c9.43-1.7,12.15-20.17,12.15-20.17,0,0,3.83,14.99,14.17,17.92"/><path class="cls-6" d="M448.53,157.48c1.01,1.8,1.36,3.75,1.02,5.79-1.02-1.8-1.36-3.75-1.02-5.79h0Z"/><path class="cls-6" d="M487.25,150.39c1.27,1.65,1.91,3.54,1.87,5.62-1.28-1.64-1.9-3.54-1.87-5.62h0Z"/><path class="cls-2" d="M439.51,158.37c.69-3.33,10.98-6.55,14.47-2.04,2.18,2.81,1.35,8.18-1.36,9.87-4.42,2.75-13.83-4.29-13.11-7.83Z"/><path class="cls-2" d="M482.57,149.01c-1.92,3.5,.42,9.38,3.83,10.47,5,1.59,12.27-7.14,10.72-10.72-1.46-3.37-11.84-4.69-14.55,.26Z"/><path class="cls-6" d="M489.61,166.83c9.74-4.76,21.22-8.09,32.02-5.39,1.51,.46,3,1.03,4.35,1.83-11.61-4.49-25.11-.32-36.37,3.56h0Z"/><path class="cls-6" d="M491,169.44c10.09-2.72,22.72-3.76,32.19,1.38,1.01,.52,1.88,1.29,2.79,1.94-1.3-.73-2.59-1.54-4-2.03-2.03-.91-4.26-1.37-6.42-1.81-8.13-1.3-16.45-.69-24.56,.52h0Z"/><path class="cls-6" d="M491,171.74c8.81,.52,24.93,2.75,30.64,9.96-3.95-3.79-9.54-5.06-14.66-6.55-5.26-1.38-10.62-2.41-15.97-3.41h0Z"/><path class="cls-6" d="M458.06,170.23c-5.63-.06-11.4,.07-16.58,2.53,4.5-3.74,11.14-3.99,16.58-2.53h0Z"/><path class="cls-6" d="M458.06,172.76c-5.78,.9-11.91,1.71-16.58,5.53,3.73-4.93,10.76-6.06,16.58-5.53h0Z"/><path class="cls-6" d="M459.08,175.52c-4.15,1.26-8.64,2.33-12.09,5.09,2.53-3.86,7.7-5.22,12.09-5.09h0Z"/></g></svg>