<?xml version="1.0" encoding="UTF-8"?><svg id="Layer_1" xmlns="http://www.w3.org/2000/svg" viewBox="0 0 1024 512"><defs><style>.cls-1{fill:#3a3a3a;}.cls-1,.cls-2,.cls-3{stroke-width:3px;}.cls-1,.cls-2,.cls-3,.cls-4{stroke:#22492c;stroke-miterlimit:10;}.cls-2,.cls-4{fill:none;}.cls-5,.cls-3{fill:#22492c;}.cls-4{stroke-width:5px;}</style></defs><path class="cls-2" d="M693.07,418.83c-.94,9.29-9.23,16.07-18.52,15.13-9.29-.94-16.07-9.23-15.13-18.52,.8-7.95,6.99-14.06,14.59-15.07,1.28-.17,2.6-.19,3.94-.06,9.29,.94,16.07,9.23,15.13,18.52Z"/><g><path class="cls-2" d="M674.01,400.37l43.06-61.73s-17.49-15.63-11.25-24.93c0,0,8.79-.89,20.37,9.01,0,0,194.83-255.51,202.83-249.63"/><path class="cls-2" d="M704.33,313.65c-24.62-15.68-67.41-38.42-125.16-47.59-42.68-6.78-79.02-3.85-104.23,.26,0,0-26.98,5.35-186.05,72.55l-104.7-210.02c331.75-233.99,744.83-55.76,744.83-55.76,8,5.88-177.59,268.17-177.59,268.17,12.91,8.09,14.69,16.74,14.69,16.74-7.01,8.74-27.15-3.28-27.15-3.28-15.35,19.85-30.69,39.7-46.04,59.54"/></g><ellipse class="cls-4" cx="153.88" cy="135.48" rx="31.34" ry="21.95" transform="translate(-45.55 87.93) rotate(-27.95)"/><path class="cls-2" d="M288.89,338.87c.93,10.22-3.64,20.17-11.98,26.03-8.73,6.13-20.26,6.84-29.78,1.83-39.03-70.62-78.06-141.23-117.08-211.85"/><ellipse class="cls-5" cx="143.95" cy="116.42" rx="12.95" ry="24.95" transform="translate(-33.89 64.95) rotate(-22.82)"/><g><path class="cls-5" d="M255.78,138.73c-7.43,11.72-12.74,16.98-24.97,23.85-4.34,.66-5-1.04-1.9-5.09,11.58-17.54,26.18-36.17,32-56.78,.67-7.65,3.11-11.75,6.16-12.72,6.92-2.2,11.26-2.27,11.91,1.44,14.59,2.94,29.18,5.53,43.7,8.92,3.6,3.72,2.2,6.14-3.94,7.33-14.23-1.43-28.5-2.69-42.77-1.03-6.37,11.57-13.22,23.1-20.19,34.09Zm20.2,53.64c3.4-7.37,4.46-14.75,3.68-24-.71-2.21,.23-4.43,2.48-5.51,3.88-1.87,6.85-1.18,7.5,1.04,3.71,.58,10.42,3.16,19.81,7.32,2.55,1.86,2.17,2.95-1.17,3.63-8.78-1.91-14.46-2.11-16.68-.9-1.99,7.4-5.11,13.14-10.03,18.92-2.37,2.46-4.28,2.5-5.57-.5Zm16.32-43.07c1.94,2.36,2.24,4.61-.28,6.85-1.91,1.7-4.65,2.01-6.59,2.14-2.91,.19-6.01,2.57-7.1,4.15-1.4,2.7-3.1,4.26-5.18,4.72-2.37,1.59-4.33,1.61-5.85-.17-4.06-4.75-8.2-8.3-10.34-10.31-3.04-2.87-3.24-6.96-.67-8.85,.85-.63,3.35-1.82,7.13-3.47,4.68-2.04,9.86-4.68,11.48-7.21,1.04-1.62,2.97-3.7,6.4-3.58,3.43,.13,5.24,1.76,5.77,4.29,.69,3.3,2.5,8.12,5.23,11.44Zm-23.85,2.27c.13,1.9,1.59,3.89,4.33,5.94,2.91-.91,6.11-2.89,9.7-5.84-1.48-3.84-3.61-7.18-4.78-7.29-2.4-.22-6.9,3.67-9.25,7.19Zm3.03-29.12c6.94-4,10.42-5.79,17.53-9.13,10.02-4.71,16.78-5.75,19.72-3.93,2.94,1.82,2.02,3.61-2.57,5.43-13.41,4.37-27.16,10.89-37.84,20.24-2.99,2.89-4.76,3.05-5.29,.29-1.08-5.5,1.78-10.08,8.45-12.91Zm41.79,51.48c2.33-6.91,1.89-14.18-.27-20.35-.96-2.75,.7-4.84,4.29-5.32,4.41-.58,6.89,.31,7.2,2.71,4.78,1.85,12.27,5.46,22.41,10.51,4.6,3.37,4.05,4.78-1.49,4.61-9.35-3.48-16.01-5.47-19.93-5.83-.77,6.34-3.05,10.96-6.93,14.78-3.57,1.18-5.33,.93-5.27-1.11Zm15.59-38.7c1.28,2.02,2.29,4.26,1.25,6.33-2.79,2.6-5.88,3.12-9.52,1.69-3.75,.37-6.91,1.92-8.15,4.15-.96,1.73-2.38,2.87-4.27,2.91-2.65,.06-4.86-.63-6.1-2.77-3.3-5.71-6.8-10.19-8.66-12.77-2.64-3.68-2.39-7.59,.23-8.79,.87-.4,3.38-1.17,7.19-1.7,2.92-.4,6.72-1.69,10.77-4.28,3.26-2.08,6.23-3.31,8.3-3,3.31,.49,5.01,2.82,5.3,5.41,.55,4.98,2.1,10.35,3.66,12.81Zm-23.27-4.29c-1.14,1.52-.03,5.19,2.75,8.66,3.75-.54,9.38-2.12,10.25-3.74,1.1-2.05-1.78-8.17-3.77-8.43-2.95-.38-7.91,1.76-9.23,3.51Zm38.34,3.93c-4.44-13.87-8.15-28.65-14.58-41.78-1.96-2.33-2.3-5.56-.74-7.22,1.86-1.98,5.67-2.7,7.98-2.66,3.32,.06,6.56,1.87,9.03,6.09,1.89,13.41,6.36,26.57,10.36,39.45,1.39,4.28-.6,6.55-3.66,7.88-2.35,1.02-5.3,1.01-8.39-1.76Zm10.62,15.44c7.31,1.12,14.45-.75,18.78-3.36,5.13-3.09,7.52-7.1,6.04-12.17-4.03-14.4-7.75-28.87-11.42-43.37-1-9.53-4.61-20.37-9.53-28.58,.15-3.98,1.31-6.76,3.51-8.42,13.77-3.33,21.97-2.54,23.3,2.96,.02,3.55,.03,5.34,.05,8.94,2.5,20.73,6.53,40.51,13.28,60.11,3.8,11.02,2.37,19.25-3.76,24.97-10.92,7.83-24.69,8.99-37.4,5.45-4.5-1.3-7.04-2.67-7.7-4.13-.11-2.39,1.77-2.87,4.85-2.4Z"/><path class="cls-5" d="M529.74,48.79c6.99,.04,17.25,3.22,26.4,3.95,6.96,.55,13.19,.11,14.35,2.37,4.64,7.98,5.05,12.63,1.4,13.55-10.06,1.71-20.2,4.03-30,6.85-.01,1.14,1.68,3.46,5.04,7.09,31.99,5.47,63.55,8.79,96.04,8.52-3.79,13.94-14.03,30.86-30.8,24.33-20.44-7.96-42.4-12.67-63.85-17.25,3.44,16.39-2.52,38.33-18.4,42.53-14.64,3.87-34.25-1.65-48.97-9.57-3.47-2.73-6.48-5.4-8.96-8.08-.1-.94,7.36-.39,21.43,3.87,2.12,.05,4.24,.13,6.36,.24,17.97-.78,28.94-14.47,28.5-32.04-31.33,1.33-62.34,5.18-91.29,17.9-7.19,2.81-8.04-1.12-1.96-12.76,6.69-7.16,17.85-9.36,26.85-10.37,19.69-2.21,40.89-5.62,61.34-8.37-3.39-3.42-5.1-5.1-8.57-8.37-5.73-3.26-5.13-5.33,1.57-6.56,5.61-1.03,12,0,18.84,3.57,3.43-2.11,9.61-3.93,12.13-6.24,2.46-2.26-4.92-8.53-15.62-7.07-10.31,1.41-22.83,7.34-34.18,11.94-6.81,2.53-10.98,.77-12.55-5.36,2.14-3.37,4.94-6.25,8.35-8.63,12.15-2.21,24.33-4.23,36.54-6.03Zm83.47-7.21c.6,10.29-.55,24.01-9.68,30.67-2.73,2.17-5.24,1.44-7.58-2.15,.18-3.43-.68-11.01-2.8-21.85-12.83-9.86-40.28-8.74-54.76-8.81-18.03-.1-38.07,3.12-56.65,5.77-9.48,1.36-16.69,4.88-17.77,8.81-1.38,5.03-.74,11.4-.36,15.46-3.06,6.73-5.97,8.3-8.86,4.77-4.67-8.29-8.1-16.1-8.54-22.48-.65-9.31,5.3-16.54,11.77-15.96,3.5,.31,8.67,1.7,13.75,1.86,15.37-3.63,31.1-6.05,46.85-7.21-.42-8.86,2.83-13.44,10.03-14.4,2.41-.02,4.86,.44,7.33,1.37,6.17,2.79,9.96,7.54,11.27,14.58,14.8,1.46,33.84,5.89,44.46,3.7,4.21-.87,10.29-4.12,13.89-3.55,4.91,.77,7.92,4.36,7.66,9.44Z"/><path class="cls-5" d="M750.23,55.66c4.88,.87,7.08,3.19,6.28,7.1-.81,3.92-3.39,5.08-7.5,3.26-14.36-2.43-28.67-4.33-43.16-5.81-10.97-.35-24.23,1.8-33.45,4.22-6.07,1.59-10.15-1.5-8.04-6.7,6.99-8.19,14.9-11.98,21.56-11.05,19.9,2.79,42.79,6.8,64.32,8.98Zm-50.65,93.1c-3.59,4.72-6.22,4.59-8.6,1.56-1.57-2-8.79-4.86-14.07-3.25-6.26,1.91-9.39,2.75-7.16-6.49,1.92-7.96,2.56-17.57,4.03-25.48,1.28-6.87,5.48-10.66,10.67-10.28,4.15,3.95,13.08,5.9,26.2,6.88,3.11-.76,5.84-1.55,8.2-2.42,5.9,1.15,6.28,4.77,1.83,10.59-7.1,9.3-14.03,19.61-21.09,28.88Zm5.95-80.61c10.45,1.08,20.85,2.2,31.22,3.91,4.46,.72,5.87,2.65,4.17,5.81-2.78,2.97-6.94,3.41-12.84,1.35-8.34-1.25-12.56-1.78-21.51-2.65-3.8,.77-8.2,1.51-13.25,2.29-5.08,.78-4.86-1.57-.15-6.76,3.56-3.92,7.8-5.45,12.37-3.95Zm-12.32,17.62c11.65,1.05,23.03,2.38,34.6,4.13,4.35,1.96,5.25,4.04,3.01,6.14,.28,1.33-1.23,2.96-4.35,4.92-12.42-3.68-25.54-4.5-38.39-3.13-2.49,1.03-3.24-.24-2.32-3.75,2.04-3.44,4.52-6.2,7.46-8.32Zm56.61-38.39c1.54,2.87-6.52,1.4-25.64-2.59-12.78-2.66-17.69-5.76-14.59-9.4,3.95-4.64,10.49-5.94,17.68-2.39,8.6,4.24,16.24,9.81,22.55,14.38Zm-44.79,75.19c-2.87-2-8.1-2.04-12.95-2.1-2.96-.04-5.74,1.21-7.05,4.84-2.19,6.06-2.34,9.05-1.07,9.4,8.59,2.37,13.82,4.06,17.23-.69,4.73-5.8,6.17-9.84,3.84-11.45Zm113.73-44.82c9.86,4.27,22.27,6.34,31.13,8.37,9.34,2.14,13.09,9.53,6.99,12.6-9.3,4.67-20.74,11.03-30.46,17.44,13.97,7.02,28.42,12.99,42.84,19.02-13.67,4.57-43.95,17.35-55.18,3.99-9.47-11.26-29.48-25.69-36.48-24.52-11.76,1.95-48.71,46.23-75.65,47.25-2.92-4.88-2.85-9.46,.5-14.41,.83-1.23,2.75-2.08,6-2.49,21.85-4.35,40.81-22.22,56.96-36.34-13.37-1.18-22.27-.38-35.24,3.09-4.94,1.58-4.94-1.22-.69-8.23,8.34-8.78,16.74-13.84,21.16-12.84,4.48,1.01,13.61,4.5,26.3,6.84,6.56-6.12,12.28-12,16.86-17.59-9.73-4.32-20.27-3.41-30.54-2.72-5.1,0-3.95-5.12,2.17-9.48,4.54-3.23,10.46-3.83,14.06-2.95,3.64,2.91,10.35,5.13,20.77,7.15,5.9-5.57,9.92-12,12.16-16.33,1.75-3.38,6.82-2.79,13.81,.71,5.86,2.93,8.2,5.85,4.65,10.21-3.33,2.02-7.05,5.54-12.11,11.24Zm-10.06,8.51c-5.04,5.52-10.85,10.87-16.95,15.77,9.15,4.3,17.66,7.81,21.18,7.11,5.52-1.1,12.03-8.18,14.95-14.5-3.29-3.64-9.86-6.56-19.17-8.38Zm-27.37,45.94c-3.16,18.84-5.1,37.03-3.92,56.1-2.37,8.24-8.1,10.34-13.49,6.06-11.91-9.46-8.07-31.13-6.47-45.77,1.73-7.95,6.57-15.41,14.37-19.72,7.05-3.9,11.23-2.52,9.51,3.33Z"/></g><g><path class="cls-5" d="M294.98,224.37c.97-1.61,1.88-2.75,2.71-3.44,1.7-1.41,3.64-.98,4.97,1.33,4.72,8.18,6.11,19.43,7.81,29.38,10.55,8.24,16.25,12.38,17.14,11.93,.38-.2,.53-1.54,.46-4.2-.08-2.66-.61-7.12-1.52-13.77-.92-6.65-2.11-12.79-3.62-17.94-1.51-5.15-3.19-9.38-5.06-12.6-1.37-2.35-2.76-4.01-4.19-5.07,1.13-1.43,2.22-2.42,3.24-3,1.02-.58,2.03-.74,3.02-.45,.99,.29,2.03,1.31,3.12,3.23,2.25,3.93,4.01,9.18,5.35,15.45,1.35,6.27,2.34,12.24,2.94,17.53,.61,5.29,1.12,11.11,1.57,16.96,.45,5.85,.69,9.18,.67,10.86-.02,1.68-.19,2.53-.53,2.69-.98,.46-8.26-3.75-22-14.41,2.38,18.7,2.83,25.27,1.26,26.37-.68,.48-2.78-.02-6.28-1.71-3.5-1.69-10.61-6.51-20.72-12.84-10.43-6.54-16.45-7.35-18.83-5.98-.31-2.87,0-5.23,.95-7.07,.93-1.79,2.27-2.66,4-2.48,1.74,.18,6.78,1.94,15.62,8.12,12.53,8.75,19.59,13.98,20.41,13.36,.53-.41,.69-2.23,.48-5.73-.21-3.5-.94-8.78-2.15-16.2-6.55-6.01-14.92-12.89-24.24-12.83-.4-2.73,.06-4.87,1.44-6.48,1.82-2.13,9.02-.37,21.98,11.66-2.05-9.1-4.25-15.63-6.71-19.21-.96-1.41-2.07-2.56-3.31-3.44Z"/><path class="cls-5" d="M377.18,232.91c2.65,7.7,3.1,14.05,1.64,19.06-1.46,5.01-4.44,7.46-9.02,8.62-4.63,1.17-9.22,.78-14.04-1.9-4.82-2.67-8.88-7.16-12.1-13.93-3.39-7.14-4.59-13.96-3.32-20.02,1.27-6.06,4.74-10.16,10.33-12.1,5.08-1.76,10.25-.85,15.26,3.02,5.01,3.87,8.74,9.89,11.26,17.24Zm-28.23,9.93c2.25,4.97,5.14,8.42,8.62,10.63,3.48,2.21,6.75,2.75,9.93,1.94,3.31-.85,5.34-2.85,6.13-6.55,.79-3.7,.24-8.27-1.77-13.79-2.01-5.52-4.78-9.98-8.35-12.92-3.57-2.94-7.22-3.77-10.81-2.56-3.68,1.24-5.88,4.08-6.56,8.37-.68,4.3,.3,9.34,2.81,14.88Z"/><path class="cls-5" d="M385.65,216.05c1.16-8.16,3.43-12.39,6.48-13.02,1.31-.27,2.61,.12,3.88,1.18,1.28,1.06,2.15,2.5,2.63,4.33,.63,2.41,.2,4.99-1.25,7.69-1.54-2.98-3.07-4.3-4.59-3.99-1.09,.22-2.02,1.32-2.78,3.3-.75,1.98-1.25,4.76-1.48,8.28,.85,3.69,1.81,7.27,2.85,10.64,2.86,9.24,5.51,14.43,8.01,17.03-1.3,1.36-2.67,2.14-4.13,2.43-1.05,.21-1.85,.12-2.41-.29-.56-.41-1.27-1.61-2.16-3.91-.34-.88-1.34-3.74-3.09-9.63-1.75-5.89-3.41-11.61-4.95-16.53-2.57-8.24-4.8-13.64-6.71-16.16,.94-.75,1.83-1.22,2.64-1.41,1.1-.26,2.18-.07,3.2,.6,1.03,.66,1.95,2.33,2.77,5.07,.37,1.23,.73,2.69,1.09,4.39Z"/><path class="cls-5" d="M429.37,199.12c-2.78-14.27-4.72-19.59-6.37-21.11,1.96-1.22,3.52-1.82,4.67-1.97,1.19-.16,2.9-.15,3.68,.25,.78,.4,1.31,1.31,1.65,2.97,.25,1.23,.71,4.8,1.69,12.96,.98,8.16,2.33,17.39,3.79,25.86,1.52,8.84,2.74,14.58,3.68,17.88,.94,3.3,1.92,5.29,2.97,6.46-1.63,1.4-3.03,2.2-4.27,2.51-.94,.24-1.63,.14-2.07-.35-.44-.48-.83-1.35-1.16-2.74-.12-.5-.22-1.02-.3-1.56-2.2,4.96-5.37,7.19-9.54,8.1-4.13,.91-7.91,.41-11.6-2.45-3.69-2.87-6.53-7.72-8.42-14.96-2.1-8.09-2.18-15.82,.09-22.19,2.27-6.37,6.34-9.89,11.91-10.86,2.84-.5,6.05-.11,9.59,1.2Zm6.48,35c-1.78-8.93-3.19-16.75-3.97-20.8-.6-3.16-1.05-5.37-1.34-6.64-3.73-1.56-6.84-2.12-9.26-1.69-3.98,.71-6.75,3.31-8.18,7.86-1.43,4.55-1.27,10.38,.32,16.88,1.32,5.37,3.24,9.05,5.74,11.34,2.5,2.3,5.21,2.94,8.25,2.32,3.86-.79,6.66-3.47,8.45-9.28Z"/><path class="cls-5" d="M452.47,235.92c1.57,.68,3.02,.85,4.42,.58,1.53-.3,2.74-.96,3.67-2.06,.93-1.1,1.4-2.42,1.39-4.06,0-1.39-.31-2.68-.93-3.81-.62-1.13-1.66-2.4-3.18-3.8-4.9-4.5-8.06-9.04-8.42-13.23-.38-4.41,.88-8.76,4.02-12.87,3.14-4.1,7.24-6.36,11.86-6.97,1.5-.2,2.55,0,3.15,.62,.6,.62,.88,1.39,.84,2.31-.04,1.14-.64,3.05-1.75,5.77-1.45-.61-2.77-.83-3.94-.67-2.22,.31-4.07,1.29-5.46,2.94-1.39,1.65-2.02,3.68-1.92,6.07,.05,1.2,.6,2.64,1.61,4.31,1,1.67,2.34,3.37,3.96,5.07,2.57,2.72,4.08,4.95,4.75,6.73,.68,1.78,.96,3.56,.9,5.31-.12,3.49-1.46,6.5-3.83,9.13-2.37,2.63-4.78,3.91-7.44,4.45-1.12,.23-2.11,.24-2.98-.01-.87-.25-1.37-.84-1.48-1.86-.11-.98,.12-2.28,.74-3.96Z"/><path class="cls-5" d="M525.15,210.24c-2.35,8.08-5.76,14.36-10.1,18.86-4.35,4.5-8.51,6.16-13.02,6.5-4.55,.35-7.92-.57-10.12-3.95-2.2-3.38-2.83-8.76-1.58-16.62,1.33-8.29,4.27-15.82,8.98-21.56,4.71-5.74,10.19-8.68,15.99-9.12,5.28-.4,8.91,1.7,10.72,6.6,1.81,4.9,1.35,11.59-.88,19.31Zm-29.17,4.18c-1.05,5.65-.75,9.75,.73,12.56,1.48,2.81,3.77,3.84,6.9,3.59,3.25-.26,6.21-1.8,9.13-5.25,2.92-3.45,5.21-8.03,6.81-13.9,1.61-5.87,1.94-10.87,.73-14.59-1.21-3.72-3.71-5.4-7.41-5.11-3.8,.3-7.36,2.51-10.48,6.7-3.12,4.19-5.24,9.7-6.41,16Z"/><path class="cls-5" d="M539.33,193.39c-1.14,.19-1.98,.29-2.51,.32-1.5,.06-1.95-.88-1.37-2.8,.36-1.18,.91-2.36,1.67-3.54,.6,.05,1.96,.03,4.05-.04,2.73-8.98,5.53-15.03,8.66-18.79,3.13-3.77,6.54-5.15,10.58-5.18,1.54-.01,2.7,.28,3.44,.92,.74,.64,.96,1.49,.62,2.61-.47,1.53-1.89,2.93-4.2,4.09-.45-1.56-1.36-2.27-2.67-2.25-1.86,.02-3.55,1.21-5.19,3.93-1.65,2.72-3.44,7.2-5.61,13.98,2.22-.34,4.14-.52,5.77-.54,1.41-.02,1.77,.97,1.07,3.01-.43,1.24-1.2,2.72-2.31,4.43-.83-.72-3.05-.95-6.65-.63-2.05,6.24-4.26,13.1-6.33,19.85-2.19,7.03-3.24,10.41-4.79,15.81-.55,1.8-1.07,2.93-1.64,3.59-.57,.66-1.27,.98-2.11,1.02-1.33,.05-2.67-.4-3.97-1.51,1.93-2.7,4.51-9.4,8.88-23.26,1.34-4.25,2.91-9.33,4.61-14.99Z"/><path class="cls-5" d="M562.24,224.1c1.13,1.24,2.68,1.78,4.61,1.71,2.1-.07,4.26-.9,6.56-2.59,2.31-1.69,4.06-4,5.34-7.11,1.44-3.5,1.34-7.9-.42-13.31-1.28-3.75-1.96-7.27-2.06-10.43-.11-3.16,.41-6.26,1.55-9.21,1.21-3.15,3.25-6.46,6.01-9.66,2.75-3.2,5.78-5.37,9.25-6.78,3.46-1.4,6.48-1.82,9.23-1.56,1.63,.15,2.83,.54,3.57,1.18,.74,.65,.96,1.46,.61,2.51-.41,1.24-1.55,2.72-3.44,4.51-1.49-1.04-3.18-1.61-5.03-1.75-2.83-.21-5.33,.46-7.64,2.16-2.3,1.7-4.06,4.18-5.39,7.57-.81,2.06-1.23,4-1.22,5.77,0,1.76,.59,4.23,1.61,7.34,1.26,3.81,1.82,7.53,1.84,10.95,.02,3.43-.53,6.35-1.6,8.83-1.46,3.39-3.65,6.71-6.42,9.82-2.76,3.12-5.44,5.18-8.3,6.55-2.87,1.36-5.4,2.03-7.7,2.14-3.39,.16-4.81-.86-3.9-3.73,.46-1.43,1.43-3.07,2.95-4.92Z"/><path class="cls-5" d="M599.45,189.73c3.07-3.13,5.3-4.54,6.76-4.45,1.41,.09,1.3,3.64-.81,10.95-2.55,8.82-4.48,15.79-5.3,20.51s-.44,6.62,.1,6.6c.63-.02,3-2.46,8.13-8.34,5.12-5.88,10.47-12.87,15.34-20.09,3.33-4.94,5.66-7.2,7.12-7.08,1.42,.12,1.04,3.23-1.43,9.68-3.46,9.02-5.8,16.01-6.72,20.6s-.84,6.56-.33,6.64c.34,.06,1.94-1.27,5.17-4.5,3.23-3.24,6.71-7.22,10.35-11.87,3.64-4.65,6.49-9,8.41-12.75,1.25-2.44,2.03-4.44,2.36-6.01,1.21-.31,2.19-.41,2.92-.3,2.14,.31,2.34,2.27,.51,5.88-4.71,9.24-11.79,17.53-19.05,25-8.98,9.23-12.76,11.3-14.55,11-1.28-.22-2.25-1.79-1.95-5.98,.3-4.19,2.17-11.43,5.89-22.18-6.52,8.57-12.3,15.48-16.93,20.37-4.63,4.89-6.98,6.6-8.56,6.7-1,.06-2.08-.96-2.39-4.06-.31-3.1,.3-9.36,2.68-20.27,1.95-8.96,2.75-14.5,2.28-16.05Z"/><path class="cls-5" d="M675.01,225.2c-3.27,8.5-7.01,14.43-11.34,17.58-4.33,3.16-8.13,2.8-12.23,.62-4.14-2.2-7.23-5.21-8.49-9.91-1.26-4.69-.29-10.32,3.2-17.6,3.68-7.67,8.48-14.03,13.62-18.42,5.14-4.4,9.64-6.1,13.72-4.94,3.71,1.06,5.7,4.48,5.96,10.69,.26,6.21-1.33,13.86-4.45,21.97Zm-24.13-7.88c-2.47,5.34-3.31,9.68-2.66,13.41,.65,3.73,2.54,6.12,5.32,7.5,2.89,1.44,5.69,1.23,8.73-1.34,3.04-2.57,5.7-6.87,8.1-12.93,2.4-6.05,3.67-11.64,3.62-16.22-.05-4.59-1.41-7.24-4.11-8.09-2.77-.87-5.89,.41-9.4,3.68-3.51,3.27-6.84,8.05-9.6,14Z"/><path class="cls-5" d="M690.24,214.77c5.41-6.92,8.99-9.65,11.09-8.37,.9,.55,1.44,1.72,1.61,3.53,.17,1.81-.1,3.74-.82,5.78-.95,2.69-2.63,4.84-5.02,6.45,.73-3.78,.55-5.99-.52-6.64-.77-.47-1.93,0-3.5,1.4-1.57,1.4-3.47,3.7-5.66,6.83-1.65,3.95-3.17,7.86-4.51,11.64-3.68,10.36-5.03,16.91-4.88,21.11-1.7,.33-3.12,.04-4.31-.75-.85-.57-1.35-1.22-1.48-1.98-.13-.76,.12-2.3,.95-4.95,.32-1.01,1.41-4.23,3.9-10.69,2.49-6.46,4.93-12.73,6.97-18.18,3.42-9.14,5.35-15.44,5.79-18.83,.95-.17,1.69-.12,2.25,.15,.75,.38,1.22,1.16,1.41,2.37,.19,1.21-.25,3.32-1.36,6.36-.5,1.36-1.13,2.95-1.91,4.75Z"/><path class="cls-5" d="M727.54,229.57c5.9-14.86,7.86-21.93,7.62-24.98,2.24,.55,3.88,1.44,4.88,2.41,1.04,1.02,1.66,2.04,1.82,3.03,.15,1-.12,2.35-.92,4.26-.58,1.4-2.41,5.3-6.18,13.37-3.77,8.07-7.72,17.06-11.3,25.57-3.74,8.89-6.12,15-7.4,18.78-1.28,3.78-1.85,6.48-1.89,8.42-1.97,.34-3.41,.22-4.41-.34-.76-.42-1.14-1.04-1.13-1.87,.01-.84,.3-2.03,.92-3.68,.22-.59,.47-1.18,.73-1.77-4.45,3.32-7.94,3.59-11.26,1.49-3.28-2.09-5.52-5.53-6.37-11.06-.85-5.53,0-12.18,2.81-20.31,3.14-9.08,7.34-16.38,12.24-20.81,4.89-4.43,9.35-4.88,13.7-1.4,2.21,1.77,4.27,4.76,6.14,8.91Zm-14.71,36.19c3.84-9.66,7.05-17.54,8.71-21.71,1.29-3.25,2.18-5.55,2.67-6.89-1.86-4.43-3.74-7.41-5.63-8.88-3.12-2.42-6.32-2-9.72,1.23-3.4,3.23-6.47,8.8-8.99,16.05-2.09,5.99-2.85,10.89-2.45,14.92,.4,4.03,1.86,6.66,4.28,8.23,3.07,1.99,6.57,1.18,11.13-2.95Z"/><path class="cls-5" d="M723.16,278.89c.75,1.64,1.72,2.69,2.94,3.29,1.33,.65,2.65,.77,3.99,.38,1.34-.39,2.46-1.2,3.33-2.55,.74-1.15,1.17-2.38,1.27-3.73,.1-1.35-.07-3.1-.5-5.34-1.42-7.22-1.22-13.52,.66-17.39,1.97-4.07,4.98-6.91,9.22-7.83,4.24-.91,8.33,.78,12.3,4.64,1.29,1.25,2.05,2.43,2.24,3.48,.19,1.05,.04,1.9-.45,2.56-.6,.82-2.04,1.68-4.28,2.77-.89-1.76-1.84-3.11-2.84-4-1.9-1.7-3.76-2.47-5.6-2.26-1.84,.21-3.3,1.41-4.42,3.48-.56,1.03-.87,2.67-.95,4.82-.08,2.15,.09,4.57,.52,7.14,.68,4.1,.83,6.89,.5,8.71-.34,1.82-1.01,3.33-1.98,4.6-1.94,2.54-4.78,4.03-8.26,4.98-3.48,.95-6.19,1.02-8.5,.07-.97-.4-1.69-.97-2.15-1.75-.46-.78-.44-1.69,.11-2.77,.52-1.03,1.45-2.14,2.86-3.3Z"/></g><path class="cls-2" d="M707.39,362.45l-4.55,10.7-8.54,20.08,25.72-22.35-.03-.08c-2.15-5.06-7.11-8.34-12.6-8.34h0Z"/><path class="cls-3" d="M900.31,111.89c4.19,3.26-157.67,223.73-158,224.16,6.65,16.9-9.11,15.35-9.11,15.35l-13.17,17.82-.33-.52c-2.27-3.57-5.78-6.18-9.85-7.33h0s12.31-18.84,12.31-18.84c0,0-6.18-13.88,11.9-12.09,0,0,161.96-221.69,166.25-218.54Z"/><path class="cls-1" d="M710.92,378.55c2.36-2.75,1.86-6.52-.06-7.99-2.05-1.57-6.17-.87-8.02,2.58-2.85,6.69-5.69,13.38-8.54,20.08l16.61-14.67Z"/></svg>